<svg width="40" height="40" viewBox="0 0 40 40" fill="none" xmlns="http://www.w3.org/2000/svg">
<path fill-rule="evenodd" clip-rule="evenodd" d="M13.2582 3.3331C12.8747 3.3331 12.5258 3.68203 12.5258 4.06544V6.6288H10.6948C10.3114 6.6288 9.96246 6.97773 9.96246 7.36114V10.2908H7.3991C7.01338 10.2873 6.67055 10.6421 6.66676 11.0232V34.8264C6.66446 35.2113 7.00956 35.5626 7.3991 35.5587H26.4417C26.8312 35.5623 27.1763 35.2113 27.174 34.8264V31.8967H29.3714C29.7609 31.9003 30.1175 31.5493 30.1152 31.1644L30.1037 28.601H32.3011C32.6845 28.601 33.0334 28.2521 33.0334 27.8687V10.6571C33.0334 10.347 32.9243 10.1457 32.7703 9.94745L27.8379 3.76777C27.7023 3.60837 27.3242 3.3353 26.808 3.33301L13.2582 3.3331ZM13.9905 4.79778H26.4414V8.45981L25.1254 6.99513C24.9652 6.80227 24.7933 6.62882 24.6104 6.62882H13.9905V4.79778ZM27.9062 6.26246L30.8359 9.9245H27.9062V6.26246ZM11.4271 8.09348H23.878V12.8542L22.047 10.6568C21.8375 10.3978 21.5757 10.2905 21.3146 10.2905H11.4271V8.09318L11.4271 8.09348ZM25.3428 9.55816L27.9062 13.2202H25.3428V9.55816ZM28.6385 11.3892H31.5682V27.1359H30.1035V13.9526C30.1035 13.5863 30.0463 13.2545 29.7372 12.8539L28.6385 11.3892ZM22.0468 12.8539L24.9765 16.8822H22.0468V12.8539ZM10.9921 13.9525L10.9923 13.9528C11.0151 13.9518 11.0381 13.9518 11.061 13.9528H15.4554C15.8598 13.9528 16.1878 14.2808 16.1878 14.6854V19.0798C16.1878 19.4841 15.8598 19.8121 15.4554 19.8121H11.061C10.6564 19.8121 10.3287 19.4841 10.3284 19.0798V14.6854C10.3269 14.3061 10.6148 13.9886 10.9923 13.9528L10.9921 13.9525ZM25.3427 14.6849H28.6384V30.4316H27.1737V17.2483C27.1737 17.0143 26.9285 16.6896 26.8074 16.516L25.3427 14.6849ZM10.9921 21.6427L10.9923 21.643C11.0151 21.642 11.0381 21.642 11.061 21.643H23.1458H23.1455C23.3407 21.6402 23.5287 21.7161 23.6676 21.8537C23.8066 21.9914 23.8848 22.1794 23.8848 22.3754C23.8848 22.5715 23.8066 22.7593 23.6676 22.897C23.5287 23.0347 23.3407 23.1105 23.1455 23.1077H11.0608H11.061C10.6585 23.1269 10.3169 22.8145 10.2978 22.4098C10.2789 22.0055 10.5897 21.6621 10.9923 21.643L10.9921 21.6427ZM10.9921 24.5724L10.9923 24.5727C11.0151 24.5717 11.0381 24.5717 11.061 24.5727H23.1458H23.1455C23.3407 24.5699 23.5287 24.6457 23.6676 24.7834C23.8066 24.9211 23.8848 25.1091 23.8848 25.3051C23.8848 25.5012 23.8066 25.689 23.6676 25.8267C23.5287 25.9644 23.3407 26.0402 23.1455 26.0374H11.0608H11.061C10.6585 26.0566 10.3169 25.7439 10.2978 25.3395C10.2789 24.9352 10.5897 24.5918 10.9923 24.5727L10.9921 24.5724ZM10.9921 27.5021L10.9923 27.5024C11.0151 27.5011 11.0381 27.5011 11.061 27.5024H23.1458H23.1455C23.3407 27.4996 23.5287 27.5754 23.6676 27.7131C23.8066 27.8508 23.8848 28.0386 23.8848 28.2347C23.8848 28.4307 23.8066 28.6187 23.6676 28.7564C23.5287 28.894 23.3407 28.9699 23.1455 28.9671H11.0608H11.061C10.6585 28.986 10.3169 28.6736 10.2978 28.2692C10.2789 27.8649 10.5897 27.5213 10.9923 27.5024L10.9921 27.5021ZM10.9921 30.4318H10.9923C11.0151 30.4308 11.0381 30.4308 11.061 30.4318H23.1458H23.1455C23.3407 30.4293 23.5287 30.5051 23.6676 30.6428C23.8066 30.7805 23.8848 30.9683 23.8848 31.1644C23.8848 31.3604 23.8066 31.5484 23.6676 31.686C23.5287 31.8235 23.3407 31.8996 23.1455 31.8968H11.0608H11.061C10.6585 31.9157 10.3169 31.6033 10.2978 31.1989C10.2789 30.7943 10.5897 30.4509 10.9923 30.4319L10.9921 30.4318Z" fill="#248CD8"/>
</svg>
