<svg width="16" height="19" viewBox="0 0 16 19" fill="none" xmlns="http://www.w3.org/2000/svg">
<path d="M7.67677 0H7.67664C4.19047 0 1.3691 2.8212 1.3691 6.30651C1.3691 6.74218 1.41316 7.16702 1.49713 7.57735C1.53731 7.77356 1.58686 7.96642 1.64486 8.15551V8.15564C1.67271 8.21712 1.66856 8.28837 1.63361 8.34609C1.63066 8.35105 1.62744 8.35573 1.62423 8.36042C1.62302 8.36243 1.62182 8.3643 1.62061 8.36618L0.0989113 10.5215C0.0936882 10.5298 0.0879294 10.5377 0.0816345 10.5452C0.0757415 10.5524 0.069581 10.5593 0.0627506 10.5655C-0.0127842 10.6463 -0.0201522 10.763 0.0407866 10.8507C0.562169 11.0259 0.870741 11.5762 0.742581 12.1148V12.115C0.738295 12.1491 0.725438 12.1817 0.705217 12.2096C0.650037 12.288 0.642137 12.3588 0.658742 12.4207C0.673876 12.4771 0.710706 12.5297 0.782627 12.5692C0.815573 12.5798 0.845304 12.5987 0.86901 12.6239C0.908788 12.6633 0.930751 12.7174 0.929678 12.7734C0.928605 12.8293 0.904499 12.8824 0.86325 12.9203C0.828964 12.9842 0.825213 13.0428 0.839143 13.0949C0.85508 13.1545 0.895659 13.2097 0.976018 13.2497C1.67685 13.4478 2.10357 14.1586 1.92824 14.8539C1.92462 14.877 1.91699 14.8993 1.90587 14.92C1.9044 14.9225 1.90292 14.9251 1.90145 14.9276C1.73297 15.2193 1.8314 15.5863 2.1231 15.7546C2.19194 15.7944 2.26453 15.8184 2.33792 15.8291H2.33805C2.34716 15.8299 2.35613 15.8313 2.36511 15.8334C2.37542 15.8351 2.3856 15.8376 2.39564 15.841C4.12882 16.3003 5.88216 16.0167 7.32147 15.186C7.35509 15.166 7.3938 15.156 7.4329 15.1573C7.52478 15.1604 7.60326 15.2241 7.62482 15.3135C7.64652 15.4027 7.60607 15.4953 7.52598 15.5402C7.27005 15.6879 7.00446 15.8189 6.73138 15.9331C6.7358 15.9481 6.73848 15.9637 6.73941 15.9792L6.90923 18.5875C8.80098 19.0765 10.7057 18.759 12.2917 17.8388L12.1156 14.8175L11.6283 14.8146V14.8144C11.6083 14.8207 11.5877 14.8239 11.5668 14.8239H5.05456C4.94166 14.8239 4.85018 14.7323 4.85018 14.6196V9.84529C4.85018 9.79091 4.87161 9.73895 4.90992 9.70051C4.94835 9.66207 5.00032 9.64051 5.05456 9.64051H7.02092V7.67484C7.02105 7.56194 7.11252 7.47047 7.22529 7.47033H9.19164V5.50466C9.19164 5.45042 9.21307 5.39832 9.25151 5.36002C9.28981 5.32158 9.34178 5.30002 9.39602 5.29989H11.5669H11.5674H11.5681L12.31 5.30564V5.30578C12.4224 5.30658 12.5129 5.39806 12.5128 5.51042V6.35402C12.8468 6.44349 13.1656 6.57876 13.4632 6.75743L13.9836 6.2248C13.9394 2.77771 11.1354 0.000571338 7.67677 0.000571338L7.67677 0ZM10.0848 2.25641C10.0922 2.25681 10.0994 2.25748 10.1066 2.25855C10.1664 2.26592 10.2198 2.299 10.2527 2.34909C10.2538 2.35056 10.2548 2.35204 10.2557 2.35351C10.2569 2.35565 10.2581 2.35779 10.2593 2.35994C10.2735 2.38431 10.2825 2.41123 10.2858 2.43909L10.4696 3.12268C10.4848 3.17545 10.4783 3.2321 10.4514 3.28004C10.4243 3.32785 10.3793 3.36281 10.3263 3.37714C10.2732 3.39134 10.2166 3.3837 10.1693 3.35585C10.122 3.32799 10.0879 3.28219 10.0746 3.22888L10.0216 3.03201C8.8808 5.14339 6.99265 6.83224 4.57084 7.64755V7.64768C4.51928 7.66576 4.46249 7.66242 4.41334 7.63844C4.36432 7.61447 4.32682 7.57175 4.30927 7.51992C4.29186 7.46809 4.29588 7.41143 4.32052 7.36255C4.34517 7.31367 4.38843 7.27684 4.44039 7.25996C6.78361 6.47071 8.60268 4.83185 9.69331 2.77882L9.40924 2.85462C9.35647 2.86989 9.29969 2.86319 9.25188 2.83614C9.20407 2.80909 9.16911 2.76382 9.15491 2.71078C9.14085 2.65761 9.14862 2.6011 9.17661 2.55382C9.2046 2.50654 9.25054 2.47253 9.30397 2.4594L9.99531 2.27471C10.0232 2.26213 10.0536 2.25583 10.0841 2.2565L10.0848 2.25641ZM9.60051 5.70864V14.4148H11.3622V5.70864H9.60051ZM11.7712 5.71011V8.33606C12.6617 8.33753 13.3703 9.11979 13.3703 10.0596C13.3703 10.9994 12.6617 11.7817 11.7712 11.7827V14.4063L12.1039 14.4092V13.6202C12.1039 13.5239 12.1711 13.4408 12.2651 13.4203C12.6653 13.334 13.047 13.1736 13.3912 12.9466C13.4729 12.8928 13.5814 12.9044 13.65 12.9744L14.189 13.5258L14.952 12.7453L14.4049 12.1855H14.4048C14.3382 12.1176 14.3273 12.0128 14.3782 11.9326C14.6017 11.5808 14.7606 11.1898 14.8468 10.7792H14.8469C14.8667 10.6845 14.9503 10.6167 15.0471 10.6167H15.8125V9.50822H15.0443C14.9473 9.50822 14.8636 9.44005 14.8441 9.34496C14.7594 8.93395 14.6019 8.54261 14.3798 8.18995C14.3293 8.10986 14.3404 8.00553 14.4067 7.93776L14.9519 7.37983L14.1889 6.59955L13.6481 7.15268C13.5794 7.22286 13.4705 7.23425 13.3888 7.18001C13.0456 6.95165 12.6647 6.78987 12.2646 6.70203C12.1707 6.6814 12.1039 6.5981 12.1039 6.50207V5.71309L11.7712 5.71011ZM12.273 7.21145V7.21132C12.2935 7.21172 12.3139 7.2152 12.3333 7.22163C12.5173 7.27935 12.6925 7.35516 12.8578 7.4469H12.8579C12.9053 7.47315 12.9404 7.51721 12.9554 7.56944C12.9704 7.62154 12.964 7.67752 12.9377 7.72507C12.9114 7.77248 12.8673 7.80757 12.8151 7.82257C12.763 7.83744 12.707 7.83114 12.6594 7.80476C12.518 7.72627 12.368 7.66145 12.2108 7.61217C12.1125 7.58324 12.0507 7.48587 12.0664 7.38449C12.0821 7.28324 12.1705 7.20918 12.2729 7.21132L12.273 7.21145ZM7.4295 7.87882V14.4147H9.19148V7.87882H7.4295ZM13.5526 8.09137L13.5525 8.09123C13.615 8.0919 13.6737 8.1211 13.712 8.17038C13.8292 8.31677 13.9327 8.4748 14.0208 8.64209C14.0734 8.742 14.035 8.86575 13.9351 8.91838C13.835 8.97102 13.7114 8.93258 13.6588 8.83253C13.5827 8.68816 13.4935 8.55195 13.3925 8.4258C13.3419 8.36446 13.3316 8.27929 13.3659 8.20763C13.4002 8.13585 13.473 8.09044 13.5525 8.09125L13.5526 8.09137ZM11.7711 8.74506V11.3734C12.4212 11.3719 12.961 10.796 12.961 10.0594C12.961 9.32284 12.4212 8.74612 11.7711 8.74506ZM14.1447 9.55358C14.2521 9.55184 14.3425 9.63354 14.3517 9.74055C14.3715 9.93648 14.3726 10.1372 14.3532 10.3408C14.3496 10.396 14.3239 10.4474 14.2817 10.4833C14.2396 10.5191 14.1847 10.5364 14.1297 10.5311C14.0746 10.5259 14.024 10.4986 13.9895 10.4553C13.9549 10.4122 13.9392 10.3568 13.9462 10.302C13.9631 10.1252 13.9621 9.95124 13.9447 9.78166V9.78153C13.9382 9.7242 13.9561 9.66675 13.9941 9.62336C14.0322 9.57983 14.087 9.55452 14.1447 9.55358L14.1447 9.55358ZM5.2585 10.049V14.4146H7.02048V10.049H5.2585ZM13.8323 11.1658H13.8325C13.9057 11.1638 13.9744 11.201 14.0127 11.2636C14.051 11.326 14.0529 11.4042 14.0177 11.4685C13.9282 11.6383 13.8231 11.7978 13.7048 11.9453C13.6715 11.9893 13.6218 12.018 13.5669 12.0247C13.5121 12.0315 13.4569 12.0158 13.4138 11.9812C13.3708 11.9466 13.3435 11.8961 13.3383 11.8411C13.333 11.7862 13.3503 11.7314 13.3861 11.6892C13.4881 11.5621 13.5784 11.4243 13.6557 11.2776C13.6896 11.2109 13.7572 11.1682 13.8321 11.1659H13.8323H13.8325L13.8323 11.1658ZM12.749 12.2854L12.7491 12.2856C12.7538 12.2854 12.7586 12.2854 12.7633 12.2856C12.8552 12.2896 12.933 12.3543 12.9537 12.4439C12.9744 12.5333 12.9329 12.6257 12.8521 12.6697C12.6888 12.7614 12.5163 12.8376 12.3367 12.8962V12.896C12.285 12.913 12.2288 12.9086 12.1803 12.8841C12.1318 12.8595 12.0951 12.8166 12.0784 12.7649C12.0615 12.7132 12.0661 12.657 12.0907 12.6085C12.1155 12.5601 12.1585 12.5234 12.2102 12.5068C12.3638 12.4569 12.5115 12.3918 12.6516 12.313C12.6813 12.2957 12.7148 12.2864 12.7491 12.2854L12.749 12.2854Z" fill="#272525"/>
</svg>
