<svg width="40" height="40" viewBox="0 0 40 40" fill="none" xmlns="http://www.w3.org/2000/svg">
<path d="M9.2714 23.778V21.9963C9.2714 21.5297 9.64894 21.148 10.1197 21.148H19.4514V23.7778C19.723 23.7228 20.0071 23.6929 20.2997 23.6929C20.5881 23.6929 20.8722 23.7225 21.1479 23.7778L21.1482 21.148H30.9041C31.3707 21.148 31.7524 21.5297 31.7524 21.9963V23.7778C32.024 23.7228 32.308 23.6929 32.6007 23.6929C32.8891 23.6929 33.1732 23.7225 33.4489 23.7778L33.4492 21.9963C33.4492 20.5924 32.3039 19.4511 30.904 19.4511L21.1481 19.4514V16.9062H19.4516V19.4514H10.1199C8.71595 19.4514 7.57471 20.5923 7.57471 21.9966V23.7781C7.84632 23.7231 8.13036 23.6932 8.42297 23.6932C8.71145 23.6932 8.99579 23.7228 9.27123 23.7781L9.2714 23.778Z" fill="#10A242"/>
<path d="M22.7218 31.4092C22.0344 31.8926 21.1989 32.177 20.2997 32.177C19.396 32.177 18.5605 31.8927 17.8735 31.4092C16.3507 31.7444 15.2097 33.1016 15.2097 34.7218V36.4183C15.2097 36.8849 15.5873 37.2666 16.058 37.2666H24.5414C25.008 37.2666 25.3896 36.8849 25.3896 36.4183V34.7218C25.3896 33.1015 24.2443 31.7443 22.7217 31.4092H22.7218Z" fill="#10A242"/>
<path d="M34.9043 31.4896C34.2383 31.9224 33.4495 32.1769 32.6009 32.1769C31.6636 32.1769 30.7981 31.8671 30.0939 31.3496C28.4059 31.5404 27.0869 32.9784 27.0869 34.7218V36.4183C27.0869 36.8849 27.4645 37.2666 27.9352 37.2666H36.4186C36.8852 37.2666 37.2668 36.8849 37.2668 36.4183V34.7218C37.2668 33.2119 36.27 31.9266 34.9043 31.4896V31.4896Z" fill="#10A242"/>
<path d="M10.8453 31.4092C10.1583 31.8926 9.32246 32.177 8.42322 32.177C7.51958 32.177 6.68404 31.8927 5.99704 31.4092C4.47419 31.7444 3.33325 33.1016 3.33325 34.7218V36.4183C3.33325 36.8849 3.71079 37.2666 4.18152 37.2666H12.6649C13.1315 37.2666 13.5132 36.8849 13.5132 36.4183V34.7218C13.5132 33.1015 12.3681 31.7443 10.8452 31.4092H10.8453Z" fill="#10A242"/>
<path d="M22.845 27.9348C22.845 29.3403 21.7056 30.4797 20.2998 30.4797C18.8941 30.4797 17.7546 29.3403 17.7546 27.9348C17.7546 26.5291 18.8941 25.3896 20.2998 25.3896C21.7056 25.3896 22.845 26.5291 22.845 27.9348Z" fill="#10A242"/>
<path d="M16.0581 15.2102H24.5415C25.0081 15.2102 25.3897 14.8286 25.3897 14.362V12.6655C25.3897 11.0452 24.2444 9.68778 22.7218 9.35284C22.0344 9.83601 21.1989 10.1204 20.2997 10.1204C19.396 10.1204 18.5605 9.83602 17.8735 9.35254C16.3507 9.68747 15.2097 11.045 15.2097 12.6652V14.3617C15.2097 14.8286 15.5873 15.2102 16.058 15.2102H16.0581Z" fill="#10A242"/>
<path d="M22.845 5.87818C22.845 7.28362 21.7056 8.42305 20.2998 8.42305C18.8941 8.42305 17.7546 7.28362 17.7546 5.87818C17.7546 4.47243 18.8941 3.33301 20.2998 3.33301C21.7056 3.33301 22.845 4.47243 22.845 5.87818Z" fill="#10A242"/>
<path d="M35.1457 27.9348C35.1457 29.3403 34.0063 30.4797 32.6005 30.4797C31.1951 30.4797 30.0557 29.3403 30.0557 27.9348C30.0557 26.5291 31.1951 25.3896 32.6005 25.3896C34.0063 25.3896 35.1457 26.5291 35.1457 27.9348Z" fill="#10A242"/>
<path d="M10.9682 27.9348C10.9682 29.3403 9.82878 30.4797 8.42304 30.4797C7.0176 30.4797 5.87817 29.3403 5.87817 27.9348C5.87817 26.5291 7.0176 25.3896 8.42304 25.3896C9.82878 25.3896 10.9682 26.5291 10.9682 27.9348" fill="#10A242"/>
</svg>
