<svg width="21" height="20" viewBox="0 0 21 20" fill="none" xmlns="http://www.w3.org/2000/svg">
<path d="M3.93521 9.48291L3.89427 9.3877H1.05615L1.25018 9.63929L1.25002 9.63944C2.1745 10.8406 3.51967 11.6472 5.01482 11.8964L5.39174 11.9598L5.16665 11.6505H5.16681C4.6754 10.9771 4.26209 10.2499 3.93519 9.48292L3.93521 9.48291Z" fill="#272525"/>
<path d="M7.50284 9.3877H4.48828L4.59259 9.61011C4.93798 10.3428 5.36805 11.0325 5.87424 11.6649L5.99627 11.818L6.11831 11.6649C6.62445 11.0328 7.05455 10.3431 7.39915 9.61011L7.50284 9.3877Z" fill="#272525"/>
<path d="M8.09758 9.3877L8.05664 9.48291C7.72976 10.2499 7.31659 10.9771 6.82518 11.6506L6.6001 11.9599L6.97701 11.8965V11.8964C8.47104 11.6448 9.81529 10.8389 10.7412 9.63975L10.9369 9.38785L8.09758 9.3877Z" fill="#272525"/>
<path d="M8.76918 6.40066C8.73327 7.16139 8.59931 7.91429 8.37078 8.64084L8.30615 8.84428H11.261L11.3055 8.76193V8.76177C11.6926 8.03743 11.9202 7.23856 11.9728 6.41884L11.9844 6.25195L8.77638 6.25211L8.76918 6.40066Z" fill="#272525"/>
<path d="M3.7783 6.41695C3.82425 7.20892 3.9808 7.99064 4.24304 8.73948L4.27959 8.84411H7.71199L7.74854 8.73948C8.01237 7.9908 8.16687 7.20828 8.20734 6.41571L8.21534 6.25195H3.76904L3.7783 6.41695Z" fill="#272525"/>
<path d="M3.62142 8.64067C3.39288 7.91411 3.25877 7.16122 3.22254 6.40049L3.21517 6.25195H0L0.012862 6.41994C0.0716802 7.23777 0.298806 8.03475 0.680108 8.76083L0.724029 8.84411H3.68622L3.62142 8.64067Z" fill="#272525"/>
<path d="M3.22256 5.55983C3.25879 4.7991 3.3929 4.04604 3.62144 3.31965L3.68606 3.11621H0.724029L0.680108 3.1995C0.298798 3.92541 0.0715276 4.7224 0.012862 5.54022L0 5.70821L3.21517 5.70837L3.22256 5.55983Z" fill="#272525"/>
<path d="M8.20768 5.54445C8.16721 4.75188 8.01271 3.96931 7.74887 3.22083L7.71232 3.11621H4.27992L4.24338 3.22083C3.98096 3.96951 3.82457 4.75124 3.77863 5.54337L3.76953 5.70838H8.21583L8.20768 5.54445Z" fill="#272525"/>
<path d="M8.37076 3.31967C8.59945 4.04606 8.73324 4.79895 8.76916 5.55984L8.77654 5.70838H11.9845L11.9729 5.54149H11.9728C11.9204 4.72178 11.6928 3.92291 11.3055 3.19856L11.261 3.11621H8.30615L8.37076 3.31967Z" fill="#272525"/>
<path d="M8.05662 2.47702L8.09756 2.57223H10.9371L10.7413 2.32033H10.7412C9.81541 1.12088 8.4712 0.314815 6.97702 0.0633678L6.6001 0L6.82518 0.309314V0.309157C7.31659 0.982667 7.7299 1.71002 8.05664 2.47701L8.05662 2.47702Z" fill="#272525"/>
<path d="M4.48828 2.57303H7.50284L7.39916 2.35061C7.05455 1.61763 6.62446 0.927939 6.11831 0.295667L5.99628 0.142578L5.87424 0.295667C5.36794 0.927939 4.93784 1.61779 4.59259 2.35061L4.48828 2.57303Z" fill="#272525"/>
<path d="M3.93521 2.47717C4.26209 1.71014 4.67526 0.982824 5.16683 0.309314L5.39191 0L5.015 0.0633678L5.01484 0.0635247C3.51973 0.312607 2.1744 1.11931 1.25004 2.32081L1.05664 2.5724H3.89427L3.93521 2.47717Z" fill="#272525"/>
<path d="M19.7378 17.9873H17.6557L17.6176 18.1369H17.6178C17.598 18.2128 17.5878 18.2907 17.5874 18.3691C17.5874 18.7653 17.7989 19.1316 18.1422 19.3299C18.4853 19.528 18.9082 19.528 19.2515 19.3299C19.5948 19.1316 19.8061 18.7653 19.8061 18.3691C19.8059 18.2907 19.7957 18.2128 19.776 18.1369L19.7378 17.9873Z" fill="#272525"/>
<path d="M12.4771 17.9873H10.395L10.3568 18.1369H10.357C10.337 18.2128 10.3269 18.2907 10.3267 18.3691C10.3267 18.7653 10.5381 19.1316 10.8813 19.3299C11.2245 19.528 11.6475 19.528 11.9908 19.3299C12.3339 19.1316 12.5454 18.7653 12.5454 18.3691C12.5452 18.2907 12.535 18.2128 12.5152 18.1369L12.4771 17.9873Z" fill="#272525"/>
<path d="M20.3701 15.0332C19.8852 14.9342 19.4397 14.6961 19.0878 14.3483C18.7379 13.998 18.4995 13.5519 18.4028 13.0662L18.3711 12.9062H16.1406V17.2961H20.53V15.065L20.3701 15.0332Z" fill="#272525"/>
<path d="M9.60303 10.7266H15.4485V17.2954H9.60303V10.7266Z" fill="#272525"/>
</svg>
