<svg width="19" height="21" viewBox="0 0 19 21" fill="none" xmlns="http://www.w3.org/2000/svg">
<path d="M12.1472 8.75301L11.5003 4.18247C11.4357 3.62198 10.9614 3.21235 10.4009 3.21235H9.73257C9.68941 1.42294 8.22347 0 6.43403 0C4.64458 0 3.17863 1.42294 3.13548 3.21235L2.44551 3.2122C1.88501 3.2122 1.41071 3.62186 1.34603 4.18232L0.00939986 13.6037C-0.0767713 14.272 0.440544 14.8756 1.10888 14.8756H6.45555C6.64969 11.7279 9.06428 9.16245 12.1472 8.75282V8.75301ZM6.41243 1.35823C7.46886 1.35823 8.30967 2.19903 8.37435 3.23383L4.47214 3.23398C4.5153 2.19903 5.37763 1.35822 6.41254 1.35822L6.41243 1.35823ZM6.41243 8.86081C4.73081 8.86081 3.37255 7.50254 3.37255 5.82093C3.37255 5.45444 3.67437 5.15264 4.04084 5.15264C4.40733 5.15264 4.70914 5.45446 4.70914 5.82093C4.70914 6.76957 5.46379 7.52403 6.41223 7.52403C7.3392 7.52403 8.11533 6.76938 8.11533 5.82093C8.11533 5.45444 8.41715 5.15264 8.78363 5.15264C9.15011 5.15264 9.45192 5.45446 9.45192 5.82093C9.45207 7.52403 8.09396 8.86081 6.41235 8.86081H6.41243Z" fill="#272525"/>
<path d="M13.0309 10.0254C10.142 10.0254 7.79199 12.3753 7.79199 15.2643C7.79199 18.1532 10.1419 20.5031 13.0309 20.5031C15.9198 20.5031 18.2697 18.1532 18.2697 15.2643C18.2699 12.3754 15.9198 10.0254 13.0309 10.0254ZM15.3808 14.4881L13.0309 16.9674C12.9015 17.0967 12.729 17.183 12.5566 17.183C12.3841 17.183 12.1901 17.1183 12.0823 16.9674L10.681 15.4797C10.4007 15.2211 10.4223 14.7899 10.681 14.5528C10.9397 14.2941 11.371 14.3156 11.6296 14.5743L12.5566 15.5444L14.4322 13.561C14.6909 13.3023 15.1005 13.2806 15.3809 13.5395C15.6397 13.7981 15.6397 14.2077 15.3809 14.4881L15.3808 14.4881Z" fill="#272525"/>
</svg>
