<svg width="40" height="40" viewBox="0 0 40 40" fill="none" xmlns="http://www.w3.org/2000/svg">
<path d="M26.3067 28.5903C26.4037 28.6344 26.5007 28.6498 26.5973 28.6498C26.8731 28.6498 27.1339 28.5007 27.2606 28.2399C28.7218 25.2954 29.0723 22.6859 28.3042 20.4793C27.6555 18.6232 26.3732 17.5712 25.6649 17.1172C25.2998 20.1143 24.3903 23.4243 22.9364 26.9804C22.914 27.0399 22.8842 27.0998 22.8545 27.1519L26.3067 28.5903Z" fill="#A601FF"/>
<path d="M5.39603 20.4793C4.62832 22.6859 4.97836 25.2953 6.43231 28.2399C6.56638 28.5007 6.82756 28.6498 7.10265 28.6498C7.2004 28.6498 7.29738 28.6339 7.39397 28.5903L10.8457 27.1514C10.816 27.0993 10.7862 27.0398 10.7638 26.9799C9.30994 23.4084 8.39305 20.1064 8.02797 17.1094C7.31203 17.5796 6.04473 18.6297 5.39608 20.4792L5.39603 20.4793Z" fill="#A601FF"/>
<path d="M21.8695 5.09347C19.8878 1.82904 17.4216 0.222547 17.2489 0.111274C17.0028 -0.0370912 16.6972 -0.0370912 16.451 0.111274C16.2787 0.222547 13.8106 1.82825 11.8274 5.09268C13.3578 5.91718 15.0748 6.36654 16.844 6.36654C18.6179 6.36692 20.3375 5.91758 21.8695 5.09347H21.8695Z" fill="#A601FF"/>
<path d="M16.8501 16.05C17.8574 16.05 18.6765 15.2309 18.6765 14.2236C18.6765 13.2163 17.857 12.3965 16.8501 12.3965C15.8428 12.3965 15.0229 13.2167 15.0229 14.2236C15.0229 15.2309 15.8428 16.05 16.8501 16.05Z" fill="#A601FF"/>
<path d="M9.33203 14.2166C9.33203 17.7429 10.2786 21.843 12.1425 26.4201C12.2533 26.696 12.53 26.8822 12.8275 26.8822H20.8647C21.1696 26.8822 21.4462 26.696 21.5571 26.4201C23.4209 21.8428 24.361 17.7349 24.361 14.2166C24.361 11.0519 23.6014 8.46585 22.5845 6.40002C20.8346 7.34315 18.8688 7.85736 16.8434 7.85736C14.8216 7.85736 12.8588 7.34234 11.1105 6.39844C10.0924 8.46437 9.33211 11.0515 9.33211 14.2166H9.33203ZM16.8504 10.9051C18.6798 10.9051 20.1677 12.393 20.1677 14.2224C20.1677 16.0519 18.6798 17.5405 16.8504 17.5405C15.0209 17.5405 13.5322 16.0519 13.5322 14.2224C13.5322 12.3934 15.0209 10.9051 16.8504 10.9051V10.9051Z" fill="#A601FF"/>
<path d="M12.8281 28.3736C12.7832 28.3736 12.7462 28.3736 12.7013 28.3662C12.5074 29.0373 12.3807 29.8947 12.4479 30.9232C12.463 31.1319 12.5673 31.3185 12.7311 31.4301C12.9026 31.5569 13.1113 31.5944 13.3126 31.5418L14.1699 31.3181C14.1475 32.8539 14.401 35.7613 16.4588 37.1554C16.5782 37.2299 16.7123 37.2755 16.8463 37.2755C16.9881 37.2755 17.1222 37.2299 17.2339 37.1554C19.299 35.7613 19.5524 32.854 19.5301 31.3181L20.3874 31.5418C20.5887 31.594 20.7973 31.5569 20.9689 31.4301C21.1331 31.3185 21.2374 31.1319 21.2521 30.9232C21.3193 29.8944 21.1926 29.037 20.9986 28.3662C20.9538 28.3736 20.909 28.3736 20.8646 28.3736H12.8281Z" fill="#A601FF"/>
<path d="M28.1062 12.7729C28.4699 13.1214 28.8941 13.379 29.3487 13.5457C29.8184 13.7123 30.273 13.8032 30.7123 13.8032C30.8185 13.8032 30.9245 13.7881 31.0306 13.7729C31.1367 13.7578 31.2427 13.7123 31.3488 13.6668C31.4397 13.6062 31.5155 13.5456 31.5761 13.4547C31.6366 13.3638 31.667 13.2577 31.667 13.1213C31.667 12.8789 31.5306 12.6971 31.2427 12.5607C30.9548 12.4244 30.6215 12.288 30.2275 12.1516C29.8791 12.0304 29.5305 11.894 29.1517 11.7577C28.788 11.6061 28.4546 11.4243 28.1365 11.1819C27.8335 10.9546 27.5759 10.6667 27.3789 10.3334C27.1819 10 27.0759 9.59091 27.0759 9.1061C27.0759 8.68185 27.1517 8.30305 27.288 7.96971C27.4244 7.63636 27.6214 7.34845 27.8638 7.12122C28.1063 6.87877 28.3487 6.69697 28.6669 6.54542C28.9851 6.39386 29.3487 6.28785 29.6517 6.21208L29.6516 5H31.4698V6.18185C31.9244 6.24242 32.3486 6.36365 32.7578 6.53032C33.1669 6.697 33.5457 6.93945 33.8942 7.25759L32.5608 9.01525C32.3032 8.80312 32.0002 8.62132 31.6668 8.50011C31.3335 8.37889 31.0154 8.31832 30.7122 8.31832C30.591 8.31832 30.4698 8.31832 30.3334 8.33343C30.1971 8.34854 30.0759 8.37888 29.9546 8.42432C29.8334 8.46977 29.7425 8.54555 29.6667 8.63645C29.5909 8.72734 29.5455 8.84857 29.5455 9.01525C29.5455 9.15159 29.5909 9.2577 29.6667 9.34859C29.7425 9.43948 29.8485 9.51527 30.0001 9.59105C30.1364 9.66683 30.3031 9.72739 30.4697 9.80317C30.6515 9.86373 30.8334 9.9244 31.0303 9.98496C31.3637 10.0911 31.7122 10.2274 32.091 10.3638C32.4546 10.5001 32.788 10.6971 33.1061 10.9244C33.4092 11.1516 33.6667 11.4395 33.8637 11.7881C34.0607 12.1365 34.1667 12.5608 34.1667 13.076C34.1667 13.47 34.091 13.8185 33.9395 14.1367C33.7879 14.4549 33.591 14.7276 33.3486 14.9548C33.1061 15.182 32.8182 15.3791 32.4849 15.5457C32.1515 15.6973 31.7576 15.8184 31.4546 15.8942L31.4547 17.2732H29.6819V15.9398C29.2273 15.8792 28.6061 15.7428 28.0758 15.5306C27.5455 15.3185 27.091 15.0155 26.6667 14.6064L28.1062 12.7729Z" fill="#A601FF"/>
<path d="M7.46645 35.9853C7.66849 36.1789 7.90419 36.322 8.15673 36.4146C8.41767 36.5072 8.67022 36.5577 8.9143 36.5577C8.97326 36.5577 9.03215 36.5493 9.09111 36.5408C9.15006 36.5324 9.20895 36.5072 9.26791 36.4819C9.31841 36.4482 9.36051 36.4145 9.39415 36.364C9.4278 36.3135 9.44465 36.2546 9.44465 36.1788C9.44465 36.0441 9.3689 35.9431 9.20895 35.8674C9.049 35.7917 8.86381 35.7159 8.64496 35.6401C8.45137 35.5728 8.25771 35.497 8.04727 35.4213C7.84523 35.3371 7.66002 35.2361 7.48328 35.1014C7.31494 34.9751 7.17184 34.8152 7.06239 34.63C6.95294 34.4448 6.89405 34.2175 6.89405 33.9482C6.89405 33.7125 6.93615 33.502 7.0119 33.3168C7.08764 33.1316 7.19709 32.9717 7.33179 32.8454C7.46649 32.7108 7.60119 32.6098 7.77793 32.5256C7.95473 32.4414 8.15671 32.3825 8.32505 32.3404L8.325 31.667H9.33511V32.3236C9.58766 32.3572 9.82334 32.4246 10.0507 32.5172C10.2779 32.6098 10.4884 32.7445 10.682 32.9212L9.94121 33.8977C9.79811 33.7798 9.62976 33.6788 9.44457 33.6115C9.25938 33.5442 9.08264 33.5105 8.91424 33.5105C8.84689 33.5105 8.77954 33.5105 8.70379 33.5189C8.62805 33.5273 8.5607 33.5441 8.49335 33.5694C8.426 33.5946 8.3755 33.6367 8.3334 33.6872C8.2913 33.7377 8.26605 33.8051 8.26605 33.8977C8.26605 33.9734 8.2913 34.0324 8.3334 34.0829C8.3755 34.1334 8.43439 34.1755 8.51859 34.2176C8.59434 34.2597 8.68693 34.2933 8.77952 34.3354C8.88052 34.3691 8.98157 34.4028 9.09097 34.4364C9.27616 34.4954 9.46975 34.5711 9.6802 34.6469C9.88224 34.7226 10.0674 34.832 10.2442 34.9583C10.4125 35.0845 10.5556 35.2445 10.6651 35.4381C10.7745 35.6317 10.8334 35.8674 10.8334 36.1537C10.8334 36.3725 10.7913 36.5662 10.7072 36.7429C10.623 36.9197 10.5136 37.0712 10.3789 37.1974C10.2442 37.3237 10.0842 37.4331 9.89904 37.5257C9.71385 37.6099 9.495 37.6772 9.32666 37.7193L9.32672 38.4854H8.34184V37.7446C8.08929 37.711 7.74415 37.6352 7.44957 37.5173C7.15492 37.3995 6.90245 37.2312 6.66675 37.0039L7.46645 35.9853Z" fill="#A601FF"/>
</svg>
