<svg width="22" height="21" viewBox="0 0 22 21" fill="none" xmlns="http://www.w3.org/2000/svg">
<path d="M7.67984 4.53809C5.94847 4.53809 4.53809 5.94847 4.53809 7.67984C4.53809 9.41481 5.94847 10.8216 7.67984 10.8216C9.41122 10.8216 10.8216 9.41481 10.8216 7.67984C10.8216 5.94847 9.41122 4.53809 7.67984 4.53809ZM7.70431 7.31672C8.74454 7.59598 8.87715 8.23136 8.88417 8.49315C8.90163 8.9853 8.55956 9.45311 8.05682 9.63108C8.02893 9.64152 7.99745 9.64511 7.96955 9.65555V10.1234H7.27139V9.64514C6.92932 9.54774 6.58024 9.29995 6.2835 8.83179L6.8629 8.40946C7.25733 9.03813 7.67624 8.97502 7.84033 8.91565C8.03934 8.84583 8.19284 8.67129 8.18599 8.52122C8.18256 8.37457 8.00802 8.17213 7.53677 8.04654C6.49654 7.76385 6.36393 7.12847 6.35691 6.87043C6.33945 6.37437 6.68153 5.90656 7.18426 5.72859C7.21215 5.72157 7.24363 5.71456 7.27153 5.7077L7.27137 5.2363H7.96954V5.718C8.30819 5.81929 8.66069 6.06007 8.95743 6.53134L8.37803 6.95024C7.9836 6.32189 7.56468 6.38828 7.40059 6.44405C7.20158 6.51387 7.04808 6.68841 7.05494 6.84238C7.05852 6.98872 7.23306 7.18772 7.70431 7.31678L7.70431 7.31672Z" fill="#272525"/>
<path d="M12.3679 12.368C12.7727 11.9666 13.1218 11.5127 13.4081 11.0206L14.4588 11.3033L14.5844 11.0454C15.0174 10.1513 15.2723 9.20179 15.3421 8.22092L15.3595 7.93121L14.3053 7.64852C14.3018 6.49997 14.0015 5.38291 13.436 4.39159L14.204 3.6236L14.0434 3.38626C13.7782 2.98483 13.464 2.60423 13.1079 2.24832C12.7554 1.89581 12.3714 1.58163 11.9734 1.3125L11.7361 1.15541L10.9681 1.92307C9.98018 1.358 8.85952 1.0577 7.71113 1.05427L7.42828 0L7.142 0.0208828C6.16114 0.083686 5.208 0.338174 4.31442 0.771114L4.05604 0.896721L4.33873 1.9474C3.84658 2.23711 3.39277 2.58621 2.98775 2.99123C2.5829 3.39237 2.23381 3.8465 1.94752 4.33861L0.897 4.05638L0.771394 4.31477C0.33845 5.20834 0.083678 6.16148 0.0208827 7.14235L0 7.42863L1.05427 7.71133C1.0577 8.85987 1.35442 9.97694 1.92355 10.9683L1.15557 11.7362L1.31266 11.9736C1.5779 12.3719 1.89565 12.7556 2.24816 13.112C2.60426 13.4645 2.98467 13.7784 3.3861 14.0441L3.62344 14.2046L4.39143 13.4366C5.37931 14.0022 6.49997 14.302 7.64836 14.3059L7.93106 15.3602L8.22076 15.3422C9.20163 15.2724 10.1548 15.0176 11.0449 14.5847L11.3033 14.4591L11.0206 13.4084C11.5126 13.1221 11.9664 12.773 12.3679 12.368L12.3679 12.368ZM7.66221 12.2005C5.15583 12.2005 3.12412 10.1688 3.12412 7.66238C3.12412 5.15599 5.15583 3.12428 7.66221 3.12428C10.1686 3.12428 12.2003 5.15599 12.2003 7.66238C12.2003 10.1688 10.1686 12.2005 7.66221 12.2005Z" fill="#272525"/>
<path d="M20.8857 16.04C20.8857 15.7188 20.8474 15.3976 20.774 15.087L21.35 14.7519L21.2557 14.48C21.0567 13.9006 20.7495 13.3696 20.3481 12.9052L20.1596 12.6887L19.5767 13.0238C19.1088 12.5801 18.5469 12.2558 17.9325 12.0708V11.4075L17.6498 11.3518C17.0668 11.233 16.4106 11.233 15.8276 11.3518L15.5449 11.4075V12.0705C14.9306 12.2555 14.3684 12.5801 13.9008 13.0235L13.3214 12.6884L13.1328 12.9046C12.7279 13.3654 12.4206 13.8963 12.2217 14.4794L12.124 14.7513L12.7034 15.0864C12.6302 15.3974 12.5917 15.7186 12.5917 16.0393C12.5917 16.3602 12.63 16.6817 12.7034 16.9923L12.124 17.3274L12.2217 17.5993C12.4207 18.1823 12.7279 18.7129 13.1328 19.1741L13.3214 19.3903L13.9008 19.0552C14.3686 19.4989 14.9305 19.8232 15.5449 20.0082V20.6711L15.8276 20.7269C16.1173 20.7875 16.4244 20.819 16.7386 20.819C17.0528 20.819 17.36 20.7872 17.6497 20.7278L17.9324 20.6721L17.9325 20.0091C18.5468 19.8241 19.109 19.4995 19.5767 19.0561L20.1596 19.3912L20.3482 19.175C20.7496 18.7108 21.0568 18.1798 21.2558 17.6002L21.3501 17.3283L20.7741 16.9932C20.8474 16.6823 20.8857 16.3611 20.8857 16.0399L20.8857 16.04ZM16.7386 18.4836C15.3912 18.4836 14.295 17.3873 14.295 16.04C14.295 14.6926 15.3912 13.5964 16.7386 13.5964C18.086 13.5964 19.1822 14.6926 19.1822 16.04C19.1822 17.3873 18.086 18.4836 16.7386 18.4836Z" fill="#272525"/>
<path d="M18.4837 8.70997V9.05905H19.1818V8.70997C19.1818 7.74658 19.9639 6.96455 20.9273 6.96455H21.2763V6.26638H20.9273C19.9639 6.26638 19.1818 5.48435 19.1818 4.52096V4.17188H18.4837V4.52096C18.4837 5.48435 17.7016 6.26638 16.7382 6.26638H16.3892V6.96455H16.7382C17.7016 6.96455 18.4837 7.74658 18.4837 8.70997Z" fill="#272525"/>
</svg>
